<?xml version="1.0" encoding="UTF-8" standalone="no"?>
<svg
   version="1.0"
   width="466.000000pt"
   height="391.000000pt"
   viewBox="0 0 466.000000 391.000000"
   preserveAspectRatio="xMidYMid meet"
   id="svg27"
   sodipodi:docname="Screenshot_20260721_112241(1).svg"
   xml:space="preserve"
   inkscape:version="1.4.4 (dcaf3e7d9e, 2026-05-05)"
   xmlns:inkscape="http://www.inkscape.org/namespaces/inkscape"
   xmlns:sodipodi="http://sodipodi.sourceforge.net/DTD/sodipodi-0.dtd"
   xmlns="http://www.w3.org/2000/svg"
   xmlns:svg="http://www.w3.org/2000/svg"><defs
      id="defs27" /><sodipodi:namedview
      id="namedview27"
      pagecolor="#ffffff"
      bordercolor="#000000"
      borderopacity="0.25"
      inkscape:showpageshadow="2"
      inkscape:pageopacity="0.0"
      inkscape:pagecheckerboard="0"
      inkscape:deskcolor="#d1d1d1"
      inkscape:document-units="pt"
      inkscape:zoom="1.5652174"
      inkscape:cx="324.55556"
      inkscape:cy="224.25"
      inkscape:window-width="1920"
      inkscape:window-height="1025"
      inkscape:window-x="0"
      inkscape:window-y="0"
      inkscape:window-maximized="1"
      inkscape:current-layer="g27" /><g
      transform="translate(0.000000,391.000000) scale(0.100000,-0.100000)"
      fill="#000000"
      stroke="none"
      id="g27"><path
        d="M2080 3322 c-575 -218 -649 -247 -642 -253 4 -3 87 -39 185 -79 l178 -74 54 27 c286 146 724 145 986 -1 l46 -25 89 35 c148 60 133 66 136 -59 3 -90 0 -113 -15 -141 -17 -29 -17 -35 -5 -55 12 -18 12 -29 2 -62 -7 -22 -13 -68 -13 -102 l-1 -63 51 0 52 0 -6 73 c-4 39 -12 87 -18 105 -8 25 -9 36 0 45 16 16 14 52 -4 67 -12 10 -15 38 -15 130 0 131 -2 127 73 155 26 10 49 21 51 24 4 6 -872 362 -889 361 -5 0 -138 -49 -295 -108z"
        id="path1"
        style="fill:#072144;fill-opacity:1" /><path
        d="M2130 2981 c-91 -20 -225 -68 -277 -101 l-33 -20 0 -155 0 -155 43 21 c130 67 317 109 482 109 166 0 305 -31 468 -103 l58 -26 -3 157 -3 157 -85 43 c-131 65 -217 84 -405 88 -129 3 -176 0 -245 -15z"
        id="path2"
        style="fill:#072144;fill-opacity:1" /><path
        d="m 1975,2402 c -61,-59 -217,-208 -348,-332 -131,-124 -234,-226 -229,-228 5,-1 102,33 218,76 247,93 314,116 320,109 5,-5 -155,-291 -322,-574 -46,-78 -84,-145 -84,-149 0,-8 154,184 399,501 172.6834,222.3765 293.2779,374.9152 362.2628,458.5749 42.0727,51.0226 64.9488,76.4251 68.7372,76.4251 3.0819,0 27.9867,-28.2974 68.468,-76.4251 C 2532.4714,2139.9267 2739.2901,1883.4164 2943,1625 c 270,-344 299,-374 197,-210 -44,70 -258,437 -318,543 -28,50 -37,72 -27,72 13,0 516,-184 540,-197 22,-13 -63,71 -320,316 -148,141 -297,281 -329,311 l -60,55 50,-70 c 27,-38 91,-128 142,-199 51,-70 91,-130 89,-132 -5,-5 -81,21 -218,75 l -105,41 -75,92 c -41,51 -90,114 -110,141 l -37,48 -93,-122 c -52,-67 -103,-132 -114,-144 -20,-23 -321,-142 -332,-132 -2,3 57,91 132,197 76,105 136,192 134,195 -2,2 -54,-45 -114,-103 z"
        id="path3"
        sodipodi:nodetypes="csccccscssscccsccccccsccccccccccc"
        style="fill:#07244c;fill-opacity:1" /><path
        style="fill:#1689ca;fill-opacity:1;stroke:none;stroke-width:2.83465;stroke-linecap:square;stroke-miterlimit:20"
        d="M 215.5,166.5 230.69851,162.74815 236,157 241.24675,162.74815 258.4,168 236.2,139.9 Z"
        id="path28"
        sodipodi:nodetypes="ccccccc"
        transform="matrix(9.9999998,0,0,-9.9999998,0,3910)" /><path
        d="M356 2452 c20 -91 48 -180 69 -222 59 -117 236 -259 445 -359 104 -50 347 -137 357 -128 9 9 34 119 30 131 -3 6 -22 17 -43 25 -71 25 -258 117 -359 176 -176 103 -287 186 -397 296 -85 85 -107 102 -102 81z"
        id="path4"
        style="fill:#205097;fill-opacity:1" /><path
        d="M4292 2426 c-80 -104 -282 -258 -487 -374 -91 -51 -326 -162 -344 -162 -20 0 -21 -21 -5 -82 8 -35 17 -64 18 -66 7 -7 224 71 325 118 313 143 464 291 515 505 23 98 27 115 24 115 -2 0 -22 -25 -46 -54z"
        id="path5"
        style="fill:#205097;fill-opacity:1" /><path
        d="M600 1899 c67 -131 127 -179 290 -233 99 -32 295 -75 304 -65 2 2 6 20 10 39 l6 35 -92 28 c-161 49 -389 148 -506 219 l-34 21 22 -44z"
        id="path6"
        style="fill:#205097;fill-opacity:1" /><path
        d="M4050 1901 c-83 -47 -276 -129 -416 -177 -77 -26 -140 -48 -141 -49 -1 0 0 -18 4 -39 l6 -38 49 6 c167 23 375 98 451 166 30 26 105 147 95 154 -1 1 -23 -9 -48 -23z"
        id="path7"
        style="fill:#205097;fill-opacity:1" /><path
        d="M770 1629 c0 -16 63 -80 94 -96 42 -22 158 -51 234 -59 69 -7 82 -1 82 42 0 18 -8 22 -54 28 -58 6 -207 44 -298 74 -32 11 -58 16 -58 11z"
        id="path8"
        style="fill:#205097;fill-opacity:1" /><path
        d="M3870 1620 c-36 -15 -209 -60 -327 -86 -18 -3 -23 -11 -23 -34 0 -35 8 -36 123 -19 149 22 238 66 277 139 13 24 9 24 -50 0z"
        id="path9"
        style="fill:#205097;fill-opacity:1" /><path
        d="M954 1416 c40 -37 99 -60 179 -72 45 -6 47 -5 47 17 0 13 -4 29 -8 35 -4 6 -54 18 -112 27 -58 9 -114 19 -125 22 -13 4 -5 -7 19 -29z"
        id="path10"
        style="fill:#205097;fill-opacity:1" /><path
        d="M3752 1443 c-7 -3 -61 -13 -119 -22 -104 -16 -107 -17 -114 -46 -5 -16 -6 -31 -4 -33 9 -9 140 20 174 38 65 35 113 83 63 63z"
        id="path11"
        style="fill:#205097;fill-opacity:1" /><path
        d="M927 1196 c-57 -16 -83 -37 -98 -83 -14 -44 -5 -94 24 -120 12 -12 58 -39 103 -61 89 -45 107 -60 107 -97 0 -97 -163 -93 -213 4 -25 49 -45 55 -36 10 3 -17 6 -48 6 -69 0 -37 0 -37 53 -46 183 -29 287 19 287 133 0 66 -29 97 -137 150 -96 47 -98 49 -101 85 -3 33 0 39 29 53 21 11 43 15 65 10 38 -7 90 -46 99 -76 11 -34 25 -9 25 45 l0 53 -42 6 c-24 3 -61 8 -83 11 -22 3 -61 0 -88 -8z"
        id="path12"
        style="fill:#062048;fill-opacity:1" /><path
        d="M1384 1181 c-2 -2 3 -12 11 -21 15 -16 9 -34 -62 -206 -59 -142 -84 -191 -101 -199 -39 -17 -24 -25 48 -25 68 0 92 12 49 23 -18 5 -20 11 -14 34 18 75 22 78 117 81 l86 3 17 -52 18 -52 -24 -18 c-24 -18 -23 -19 79 -19 61 0 102 4 102 10 0 6 -7 10 -15 10 -8 0 -23 17 -34 38 -23 45 -151 369 -151 381 0 18 -110 28 -126 12z m85 -184 c17 -43 31 -80 31 -82 0 -3 -31 -5 -69 -5 l-70 0 26 63 c14 34 29 73 34 86 5 13 11 22 13 20 3 -2 18 -39 35 -82z"
        id="path13"
        style="fill:#062048;fill-opacity:1" /><path
        d="M1776 1181 c-4 -6 -3 -11 3 -11 5 0 17 -7 25 -16 13 -13 16 -45 16 -199 l0 -183 -27 -21 -28 -20 103 -1 c61 0 102 4 102 10 0 6 -7 10 -15 10 -24 0 -36 37 -33 102 l3 62 65 1 c123 2 185 54 177 148 -4 51 -24 80 -72 105 -38 20 -308 31 -319 13z m261 -66 c30 -35 32 -106 3 -135 -22 -22 -57 -33 -91 -28 -23 3 -24 7 -27 87 -2 46 0 91 3 99 9 24 85 9 112 -23z"
        id="path14"
        style="fill:#062048;fill-opacity:1" /><path
        d="M2224 1179 c-2 -3 8 -11 21 -17 22 -10 25 -17 25 -69 0 -32 -5 -116 -10 -188 -8 -112 -12 -132 -30 -147 -11 -9 -20 -19 -20 -22 0 -3 29 -6 65 -6 36 0 65 2 65 5 0 3 -9 14 -21 26 -19 19 -21 29 -15 93 3 39 7 102 8 139 0 37 4 69 7 72 4 2 39 -69 77 -158 43 -98 77 -162 85 -162 9 0 41 63 84 163 38 89 73 162 76 162 3 0 7 -26 7 -57 1 -32 4 -99 8 -150 6 -86 5 -92 -15 -105 -11 -7 -21 -16 -21 -20 0 -5 44 -8 98 -8 l97 0 -27 23 c-26 21 -27 26 -33 157 -3 74 -8 154 -11 177 -4 36 -1 47 20 68 13 13 22 26 18 29 -4 2 -38 3 -77 2 l-70 -1 -59 -138 c-32 -75 -62 -137 -66 -137 -7 0 -69 133 -114 243 l-15 38 -76 -3 c-42 -2 -78 -6 -81 -9z"
        id="path15"
        style="fill:#062048;fill-opacity:1" /><path
        d="M3035 1180 c-3 -5 2 -10 10 -14 8 -3 15 -10 15 -16 0 -6 -34 -92 -76 -193 -52 -127 -83 -189 -102 -204 l-27 -23 73 0 c39 0 72 3 72 6 0 3 -9 13 -21 23 l-20 16 20 48 21 48 87 -3 87 -3 17 -45 c17 -44 16 -46 -4 -67 l-20 -23 103 0 104 0 -31 28 c-32 27 -55 78 -145 315 -37 97 -44 107 -67 108 -14 1 -41 2 -59 4 -18 1 -35 -1 -37 -5z m90 -190 l32 -80 -68 0 c-38 0 -69 2 -69 6 0 13 64 164 68 160 2 -3 19 -41 37 -86z"
        id="path16"
        style="fill:#062048;fill-opacity:1" /><path
        d="M3455 1152 c-3 -20 -8 -45 -10 -54 -5 -29 11 -30 30 -2 9 14 32 32 50 40 38 15 155 19 155 5 0 -5 -56 -96 -124 -202 -68 -107 -121 -197 -117 -202 4 -4 92 -6 196 -5 l189 3 12 58 c9 44 8 57 -1 57 -6 0 -18 -11 -25 -25 -20 -38 -68 -55 -154 -55 -42 0 -76 4 -76 8 0 5 18 36 39 70 120 185 202 322 197 330 -3 5 -84 10 -180 10 l-175 2 -6 -38z"
        id="path17"
        style="fill:#062048;fill-opacity:1" /><path
        d="M3186 623 c-11 -11 -6 -23 9 -23 8 0 15 4 15 9 0 13 -16 22 -24 14z"
        id="path18"
        style="fill:#0d599b;fill-opacity:1" /><path
        d="M1461 558 c-5 -13 -20 -47 -34 -76 -20 -40 -22 -52 -11 -52 8 0 17 7 20 15 4 10 20 15 49 15 29 0 45 -5 49 -15 3 -8 12 -15 20 -15 11 0 7 17 -18 73 -35 76 -60 95 -75 55z m43 -40 c9 -35 8 -38 -19 -38 -29 0 -29 0 -13 35 14 31 24 32 32 3z"
        id="path19"
        style="fill:#0d599b;fill-opacity:1" /><path
        d="M1710 505 c0 -60 3 -75 15 -75 8 0 15 8 15 19 0 10 6 24 14 30 11 9 18 6 36 -19 12 -16 30 -30 42 -30 18 0 17 3 -11 35 -17 20 -31 39 -31 44 0 4 11 18 25 31 27 26 32 40 13 40 -7 0 -26 -16 -41 -35 -35 -44 -47 -44 -47 0 0 24 -5 35 -15 35 -12 0 -15 -15 -15 -75z"
        id="path20"
        style="fill:#0d599b;fill-opacity:1" /><path
        d="M2042 568 c-9 -12 -62 -125 -62 -134 0 -11 29 -2 34 11 8 21 82 20 94 -1 5 -9 14 -15 20 -13 14 5 -48 149 -64 149 -6 0 -16 -6 -22 -12z m32 -44 c11 -29 6 -44 -14 -44 -11 0 -20 6 -20 14 0 21 11 46 20 46 4 0 11 -7 14 -16z"
        id="path21"
        style="fill:#0d599b;fill-opacity:1" /><path
        d="M2280 506 l0 -76 58 0 c48 0 62 4 80 23 27 28 28 67 3 98 -14 18 -31 23 -80 27 l-61 4 0 -76z m112 37 c20 -18 23 -45 8 -74 -8 -14 -21 -19 -50 -19 l-40 0 0 48 c0 27 3 52 7 55 12 13 56 7 75 -10z"
        id="path22"
        style="fill:#0d599b;fill-opacity:1" /><path
        d="M2587 573 c-4 -3 -7 -37 -7 -75 l0 -68 60 0 c33 0 60 4 60 10 0 6 -20 10 -45 10 -38 0 -45 3 -45 20 0 19 19 26 57 21 6 -1 14 3 18 9 4 6 -9 10 -34 10 -37 0 -41 2 -41 25 0 23 4 25 45 25 25 0 45 5 45 10 0 11 -103 14 -113 3z"
        id="path23"
        style="fill:#0d599b;fill-opacity:1" /><path
        d="M2850 505 c0 -59 3 -75 14 -75 10 0 16 14 18 43 l3 42 23 -37 c13 -21 27 -38 30 -38 4 0 18 19 32 43 l25 42 3 -53 c2 -36 7 -52 15 -49 17 5 16 149 0 154 -7 3 -25 -18 -40 -46 -15 -28 -31 -51 -35 -51 -4 0 -19 22 -35 50 -40 72 -53 66 -53 -25z"
        id="path24"
        style="fill:#0d599b;fill-opacity:1" /><path
        d="M3180 506 c0 -62 3 -76 15 -76 13 0 15 12 13 72 -2 46 -7 73 -15 76 -10 3 -13 -16 -13 -72z"
        id="path25"
        style="fill:#0d599b;fill-opacity:1" /><path
        d="M1083 513 c37 -2 96 -2 130 0 34 2 4 3 -68 3 -71 0 -99 -1 -62 -3z"
        id="path26"
        style="fill:#0d599b;fill-opacity:1" /><path
        d="M3453 513 c37 -2 97 -2 135 0 37 2 6 3 -68 3 -74 0 -105 -1 -67 -3z"
        id="path27"
        style="fill:#0d599b;fill-opacity:1" /></g></svg>